<?xml version="1.0" encoding="utf-8"?>
<!-- Generator: Adobe Illustrator 26.2.1, SVG Export Plug-In . SVG Version: 6.00 Build 0)  -->
<svg version="1.1" id="Capa_1" xmlns="http://www.w3.org/2000/svg" xmlns:xlink="http://www.w3.org/1999/xlink" x="0px" y="0px"
	 width="344px" height="87px" viewBox="0 0 344 87" enable-background="new 0 0 344 87" xml:space="preserve">
<g>
	<g>
		<g>
			<path fill="#FFFFFF" d="M77.41,32.17L77.41,32.17c2.98,3.01,2.95,7.86-0.06,10.84l-0.05,0.05c-4.82,4.77-12.02,5.68-17.75,2.76
				c-2.22-1.14-2.64-4.15-0.86-5.91l7.88-7.79C69.59,29.13,74.44,29.16,77.41,32.17z"/>
		</g>
		<g>
			<path fill="#FFFFFF" d="M5.65,53.1L5.65,53.1c-2.98-3.01-2.95-7.86,0.06-10.84l0.05-0.05c4.82-4.77,12.02-5.68,17.75-2.76
				c2.22,1.14,2.64,4.15,0.86,5.91l-7.88,7.79C13.48,56.14,8.63,56.11,5.65,53.1z"/>
		</g>
		<g>
			<path fill="#FFFFFF" d="M59.68,9.96L59.68,9.96c4.23,0.05,7.62,3.51,7.58,7.75l0,0.06c-0.07,6.79-4.55,12.49-10.68,14.44
				c-2.38,0.76-4.79-1.1-4.77-3.59l0.12-11.08C51.98,13.31,55.45,9.91,59.68,9.96z"/>
		</g>
		<g>
			<path fill="#FFFFFF" d="M23.38,75.31L23.38,75.31c-4.23-0.05-7.62-3.51-7.58-7.75l0-0.06c0.07-6.79,4.55-12.49,10.68-14.44
				c2.38-0.76,4.79,1.1,4.77,3.59l-0.12,11.08C31.08,71.96,27.61,75.35,23.38,75.31z"/>
		</g>
		<g>
			<path fill="#FFFFFF" d="M31.46,6.64L31.46,6.64c3.04-2.94,7.89-2.86,10.84,0.18l0.04,0.05c4.72,4.88,5.55,12.08,2.56,17.78
				c-1.16,2.21-4.18,2.59-5.91,0.8l-7.71-7.96C28.34,14.43,28.42,9.58,31.46,6.64z"/>
		</g>
		<g>
			<path fill="#FFFFFF" d="M51.61,78.63L51.61,78.63c-3.04,2.94-7.89,2.86-10.84-0.18l-0.04-0.05c-4.72-4.88-5.55-12.08-2.56-17.78
				c1.16-2.21,4.18-2.59,5.91-0.8l7.71,7.96C54.73,70.83,54.65,75.68,51.61,78.63z"/>
		</g>
		<g>
			<path fill="#FFFFFF" d="M9.06,24.13L9.06,24.13c0.09-4.23,3.6-7.59,7.83-7.49l0.06,0c6.78,0.15,12.44,4.68,14.32,10.84
				c0.73,2.39-1.15,4.78-3.65,4.73l-11.08-0.24C12.32,31.86,8.97,28.36,9.06,24.13z"/>
		</g>
		<g>
			<path fill="#FFFFFF" d="M74.01,61.14L74.01,61.14c-0.09,4.23-3.6,7.59-7.83,7.49l-0.06,0c-6.78-0.15-12.44-4.68-14.32-10.84
				c-0.73-2.39,1.15-4.78,3.65-4.73l11.08,0.24C70.74,53.4,74.1,56.91,74.01,61.14z"/>
		</g>
	</g>
	<path fill="#FFFFFF" d="M114.81,14.49c-0.09-0.15-0.42-0.39-0.97-0.72c-0.56-0.32-1.25-0.67-2.08-1.04
		c-0.83-0.37-1.74-0.69-2.73-0.97c-0.99-0.28-1.97-0.42-2.96-0.42c-1.3,0-2.3,0.22-3.01,0.67c-0.71,0.44-1.06,1.13-1.06,2.04
		c0,0.74,0.27,1.32,0.81,1.75c0.54,0.43,1.32,0.8,2.34,1.13c1.02,0.32,2.27,0.7,3.75,1.13c2.1,0.55,3.92,1.22,5.46,2
		c1.54,0.78,2.72,1.79,3.54,3.01c0.82,1.23,1.23,2.85,1.23,4.87c0,1.84-0.34,3.39-1.02,4.67c-0.68,1.27-1.6,2.3-2.75,3.08
		c-1.16,0.78-2.48,1.35-3.96,1.7c-1.48,0.35-3.01,0.53-4.58,0.53c-1.6,0-3.25-0.16-4.93-0.49c-1.68-0.32-3.29-0.79-4.84-1.39
		c-1.54-0.6-2.96-1.33-4.26-2.2l3.33-6.62c0.12,0.16,0.52,0.44,1.2,0.86c0.68,0.42,1.52,0.85,2.52,1.3c1,0.45,2.12,0.84,3.36,1.18
		c1.23,0.34,2.48,0.51,3.75,0.51c1.36,0,2.37-0.21,3.03-0.63c0.66-0.42,1-1.01,1-1.77c0-0.83-0.35-1.47-1.04-1.93
		c-0.69-0.46-1.64-0.87-2.82-1.24c-1.19-0.37-2.55-0.78-4.1-1.24c-2.01-0.61-3.66-1.3-4.97-2.07c-1.31-0.77-2.28-1.7-2.92-2.81
		c-0.63-1.1-0.95-2.48-0.95-4.14c0-2.3,0.55-4.24,1.64-5.82c1.09-1.58,2.57-2.78,4.42-3.59c1.85-0.81,3.87-1.22,6.06-1.22
		c1.54,0,3.03,0.19,4.47,0.56c1.44,0.37,2.78,0.83,4.03,1.39c1.25,0.56,2.37,1.11,3.36,1.67L114.81,14.49z"/>
	<path fill="#FFFFFF" d="M134.76,38.14c-2.07,0-3.91-0.34-5.53-1c-1.62-0.67-2.98-1.58-4.09-2.74c-1.11-1.15-1.95-2.48-2.52-3.97
		c-0.57-1.49-0.86-3.06-0.86-4.7c0-1.67,0.28-3.25,0.86-4.74c0.57-1.49,1.41-2.81,2.52-3.97c1.11-1.15,2.48-2.07,4.09-2.73
		c1.62-0.67,3.46-1,5.53-1c2.07,0,3.9,0.33,5.51,1c1.6,0.67,2.96,1.58,4.07,2.73c1.11,1.16,1.96,2.48,2.55,3.97
		c0.59,1.49,0.88,3.07,0.88,4.74c0,1.64-0.29,3.21-0.88,4.7c-0.59,1.49-1.43,2.81-2.55,3.97c-1.11,1.16-2.47,2.07-4.07,2.74
		C138.66,37.81,136.83,38.14,134.76,38.14z M129.34,25.74c0,1.23,0.24,2.31,0.72,3.23c0.48,0.93,1.12,1.65,1.92,2.16
		c0.8,0.51,1.73,0.76,2.78,0.76c1.02,0,1.94-0.26,2.75-0.79c0.82-0.52,1.46-1.25,1.92-2.18c0.46-0.93,0.69-1.99,0.69-3.19
		c0-1.23-0.23-2.31-0.69-3.23c-0.46-0.93-1.1-1.65-1.92-2.16c-0.82-0.51-1.74-0.76-2.75-0.76c-1.05,0-1.97,0.25-2.78,0.76
		c-0.8,0.51-1.44,1.23-1.92,2.16C129.58,23.43,129.34,24.51,129.34,25.74z"/>
	<path fill="#FFFFFF" d="M189.59,37.68h-7.4V24.3c0-1.54-0.29-2.67-0.88-3.4c-0.59-0.72-1.34-1.09-2.27-1.09
		c-0.99,0-1.96,0.39-2.92,1.18s-1.64,1.8-2.04,3.04v13.65h-7.4V24.3c0-1.57-0.29-2.71-0.88-3.42c-0.59-0.71-1.34-1.07-2.27-1.07
		c-0.96,0-1.91,0.39-2.87,1.16c-0.96,0.77-1.65,1.77-2.08,2.98v13.72h-7.4V13.66h6.66v4.1c0.89-1.43,2.11-2.53,3.63-3.3
		c1.53-0.77,3.31-1.16,5.34-1.16c2.01,0,3.55,0.46,4.63,1.39c1.08,0.93,1.77,2.01,2.08,3.26c0.93-1.49,2.15-2.64,3.68-3.44
		c1.53-0.81,3.25-1.21,5.16-1.21c1.54,0,2.79,0.28,3.75,0.84c0.96,0.56,1.68,1.3,2.17,2.21c0.49,0.91,0.83,1.89,1.02,2.94
		c0.19,1.05,0.28,2.07,0.28,3.08V37.68z"/>
	<path fill="#FFFFFF" d="M93.76,63.39c0-2,0.35-3.97,1.04-5.9c0.69-1.93,1.71-3.69,3.05-5.28c1.34-1.59,2.98-2.85,4.93-3.79
		c1.94-0.94,4.15-1.41,6.62-1.41c2.93,0,5.45,0.67,7.54,2.01c2.1,1.34,3.66,3.06,4.67,5.16l-3.29,2.13
		c-0.65-1.39-1.47-2.49-2.48-3.31c-1-0.82-2.08-1.4-3.24-1.74c-1.16-0.34-2.29-0.51-3.4-0.51c-1.82,0-3.43,0.37-4.84,1.11
		c-1.4,0.74-2.58,1.73-3.54,2.96c-0.96,1.23-1.67,2.61-2.15,4.14c-0.48,1.53-0.72,3.06-0.72,4.6c0,1.7,0.28,3.33,0.86,4.91
		c0.57,1.57,1.37,2.96,2.38,4.16c1.02,1.2,2.22,2.16,3.61,2.87c1.39,0.71,2.9,1.06,4.53,1.06c1.14,0,2.31-0.2,3.52-0.6
		c1.2-0.4,2.33-1.03,3.38-1.87c1.05-0.85,1.88-1.95,2.5-3.31l3.47,1.9c-0.68,1.64-1.73,3.02-3.15,4.17c-1.42,1.14-3,2.01-4.74,2.59
		c-1.74,0.59-3.46,0.88-5.16,0.88c-2.25,0-4.32-0.49-6.2-1.46c-1.88-0.97-3.51-2.27-4.88-3.89c-1.37-1.62-2.44-3.44-3.19-5.46
		S93.76,65.46,93.76,63.39z"/>
	<path fill="#FFFFFF" d="M136.89,80.56c-1.82,0-3.47-0.33-4.95-0.99c-1.48-0.66-2.76-1.56-3.84-2.71c-1.08-1.15-1.91-2.47-2.5-3.97
		c-0.59-1.5-0.88-3.08-0.88-4.73c0-1.68,0.29-3.28,0.88-4.78s1.42-2.83,2.5-3.97c1.08-1.15,2.37-2.05,3.86-2.71
		c1.5-0.66,3.15-0.99,4.98-0.99c1.79,0,3.42,0.33,4.9,0.99c1.48,0.66,2.77,1.56,3.86,2.71c1.09,1.15,1.94,2.47,2.52,3.97
		s0.88,3.09,0.88,4.78c0,1.65-0.29,3.23-0.88,4.73c-0.59,1.5-1.42,2.82-2.5,3.97c-1.08,1.15-2.37,2.05-3.86,2.71
		C140.36,80.23,138.71,80.56,136.89,80.56z M128.88,68.2c0,1.65,0.36,3.14,1.09,4.49c0.72,1.34,1.69,2.4,2.89,3.18
		c1.2,0.78,2.54,1.17,4.03,1.17c1.48,0,2.83-0.4,4.05-1.19c1.22-0.79,2.19-1.87,2.92-3.23c0.72-1.36,1.09-2.86,1.09-4.51
		c0-1.65-0.36-3.14-1.09-4.49c-0.73-1.34-1.7-2.41-2.92-3.21c-1.22-0.79-2.57-1.19-4.05-1.19c-1.48,0-2.82,0.4-4.03,1.21
		c-1.2,0.81-2.17,1.89-2.89,3.23C129.24,65.01,128.88,66.53,128.88,68.2z"/>
	<path fill="#FFFFFF" d="M190.01,80.1h-4.07V66.7c0-2.51-0.41-4.36-1.23-5.55c-0.82-1.19-2.03-1.79-3.63-1.79
		c-1.64,0-3.12,0.59-4.44,1.77c-1.33,1.18-2.27,2.7-2.82,4.56v14.4h-4.07V66.7c0-2.54-0.4-4.39-1.2-5.57
		c-0.8-1.18-2.01-1.77-3.61-1.77c-1.6,0-3.08,0.57-4.42,1.72c-1.34,1.14-2.29,2.66-2.85,4.55V80.1h-4.07V56.08h3.7v5.19
		c0.99-1.78,2.27-3.15,3.84-4.11c1.57-0.97,3.35-1.45,5.32-1.45c2,0,3.61,0.54,4.81,1.63c1.2,1.09,1.94,2.49,2.22,4.2
		c1.08-1.9,2.39-3.35,3.93-4.34c1.54-0.99,3.3-1.49,5.28-1.49c1.39,0,2.55,0.25,3.49,0.76c0.94,0.51,1.69,1.21,2.24,2.11
		c0.56,0.9,0.96,1.97,1.2,3.19c0.25,1.23,0.37,2.56,0.37,3.99V80.1z"/>
	<path fill="#FFFFFF" d="M195.43,70.48v-14.4h4.07v13.61c0,2.45,0.43,4.29,1.3,5.52c0.86,1.23,2.14,1.84,3.84,1.84
		c1.11,0,2.18-0.24,3.22-0.71c1.03-0.47,1.97-1.15,2.8-2.04c0.83-0.89,1.48-1.94,1.94-3.16V56.08h4.07v19.4
		c0,0.49,0.1,0.85,0.3,1.08c0.2,0.23,0.53,0.36,1,0.39v3.15c-0.46,0.06-0.83,0.1-1.09,0.12c-0.26,0.02-0.52,0.02-0.76,0.02
		c-0.77,0-1.43-0.24-1.99-0.71c-0.56-0.48-0.85-1.07-0.88-1.77l-0.09-2.81c-1.05,1.78-2.46,3.16-4.23,4.14
		c-1.77,0.98-3.71,1.47-5.81,1.47c-2.53,0-4.44-0.85-5.74-2.55C196.07,76.3,195.43,73.8,195.43,70.48z"/>
	<path fill="#FFFFFF" d="M243.74,80.1h-4.07V66.7c0-2.54-0.39-4.39-1.18-5.57c-0.79-1.18-1.98-1.77-3.59-1.77
		c-1.11,0-2.21,0.27-3.31,0.82c-1.09,0.55-2.07,1.29-2.92,2.22c-0.85,0.93-1.46,2-1.83,3.22V80.1h-4.07V56.08h3.7v5.19
		c0.65-1.13,1.48-2.11,2.5-2.94c1.02-0.83,2.17-1.47,3.47-1.93c1.3-0.46,2.65-0.69,4.07-0.69c1.39,0,2.55,0.25,3.49,0.76
		c0.94,0.51,1.68,1.21,2.22,2.11c0.54,0.9,0.93,1.97,1.16,3.19c0.23,1.23,0.35,2.56,0.35,3.99V80.1z"/>
	<path fill="#FFFFFF" d="M249.38,51.41v-5.09h4.07v5.09H249.38z M249.38,80.1V55.94h4.07V80.1H249.38z"/>
	<path fill="#FFFFFF" d="M272.75,79.03c-0.34,0.16-0.8,0.36-1.39,0.6c-0.59,0.25-1.27,0.46-2.04,0.65
		c-0.77,0.19-1.59,0.28-2.45,0.28c-0.99,0-1.9-0.18-2.73-0.53c-0.83-0.35-1.5-0.91-1.99-1.67c-0.49-0.76-0.74-1.7-0.74-2.85V59.27
		h-3.29v-3.19h3.29v-8.05h4.07v8.05h5.41v3.19h-5.41v14.99c0.06,0.86,0.35,1.5,0.88,1.92c0.52,0.42,1.14,0.62,1.85,0.62
		c0.8,0,1.54-0.14,2.22-0.42c0.68-0.28,1.13-0.48,1.34-0.6L272.75,79.03z"/>
	<path fill="#FFFFFF" d="M275.11,73.16c0-1.53,0.44-2.86,1.32-3.98c0.88-1.12,2.09-1.99,3.63-2.6c1.54-0.61,3.33-0.92,5.37-0.92
		c1.08,0,2.22,0.09,3.43,0.25c1.2,0.17,2.27,0.42,3.19,0.76v-1.75c0-1.83-0.56-3.26-1.67-4.31c-1.11-1.05-2.68-1.57-4.72-1.57
		c-1.33,0-2.6,0.24-3.82,0.72c-1.22,0.48-2.51,1.16-3.86,2.06l-1.48-2.87c1.57-1.08,3.15-1.89,4.72-2.43s3.21-0.81,4.91-0.81
		c3.08,0,5.52,0.85,7.31,2.55c1.79,1.7,2.68,4.06,2.68,7.09v10.14c0,0.49,0.1,0.85,0.3,1.08s0.53,0.36,1,0.39v3.15
		c-0.4,0.06-0.75,0.11-1.04,0.14c-0.29,0.03-0.53,0.05-0.72,0.05c-0.96,0-1.67-0.26-2.15-0.79c-0.48-0.52-0.75-1.08-0.81-1.67
		l-0.09-1.53c-1.05,1.36-2.42,2.41-4.12,3.15c-1.7,0.74-3.38,1.11-5.04,1.11c-1.6,0-3.04-0.33-4.3-0.99
		c-1.27-0.66-2.25-1.55-2.96-2.67C275.47,75.78,275.11,74.54,275.11,73.16z M290.84,74.85c0.37-0.43,0.66-0.86,0.88-1.31
		c0.21-0.44,0.32-0.82,0.32-1.12v-2.98c-0.96-0.37-1.96-0.65-3.01-0.85c-1.05-0.2-2.08-0.3-3.1-0.3c-2.07,0-3.74,0.4-5.02,1.21
		c-1.28,0.81-1.92,1.92-1.92,3.32c0,0.76,0.21,1.5,0.62,2.22c0.42,0.72,1.03,1.31,1.85,1.77c0.82,0.46,1.83,0.69,3.03,0.69
		c1.26,0,2.47-0.25,3.61-0.75C289.26,76.25,290.17,75.61,290.84,74.85z"/>
	<path fill="#FFFFFF" d="M314.03,79.03c-0.34,0.16-0.8,0.36-1.39,0.6c-0.59,0.25-1.27,0.46-2.04,0.65
		c-0.77,0.19-1.59,0.28-2.45,0.28c-0.99,0-1.9-0.18-2.73-0.53c-0.83-0.35-1.5-0.91-1.99-1.67c-0.49-0.76-0.74-1.7-0.74-2.85V59.27
		h-3.29v-3.19h3.29v-8.05h4.07v8.05h5.41v3.19h-5.41v14.99c0.06,0.86,0.35,1.5,0.88,1.92c0.52,0.42,1.14,0.62,1.85,0.62
		c0.8,0,1.54-0.14,2.22-0.42c0.68-0.28,1.13-0.48,1.34-0.6L314.03,79.03z"/>
	<path fill="#FFFFFF" d="M326.11,80.56c-2.01,0-3.89-0.33-5.65-1c-1.76-0.66-3.27-1.66-4.53-2.99l1.57-2.87
		c1.39,1.3,2.78,2.22,4.17,2.78c1.39,0.56,2.81,0.83,4.26,0.83c1.67,0,3.02-0.31,4.07-0.94c1.05-0.62,1.57-1.54,1.57-2.76
		c0-0.89-0.27-1.55-0.81-1.97c-0.54-0.43-1.3-0.79-2.29-1.08c-0.99-0.29-2.16-0.62-3.52-0.99c-1.67-0.49-3.07-1.01-4.21-1.56
		c-1.14-0.55-2.01-1.24-2.59-2.07c-0.59-0.83-0.88-1.87-0.88-3.12c0-1.53,0.4-2.82,1.2-3.88c0.8-1.06,1.9-1.86,3.31-2.41
		c1.4-0.55,3-0.83,4.79-0.83c1.79,0,3.41,0.28,4.86,0.83c1.45,0.56,2.7,1.37,3.75,2.45l-1.85,2.82c-0.96-0.99-2.01-1.72-3.15-2.2
		c-1.14-0.48-2.42-0.72-3.84-0.72c-0.83,0-1.65,0.1-2.45,0.3s-1.46,0.55-1.99,1.05c-0.53,0.5-0.79,1.22-0.79,2.13
		c0,0.76,0.21,1.37,0.62,1.81c0.42,0.44,1.03,0.82,1.85,1.12c0.82,0.31,1.81,0.64,2.99,1.01c1.82,0.52,3.4,1.04,4.74,1.56
		c1.34,0.52,2.38,1.19,3.12,2.02c0.74,0.83,1.11,1.97,1.11,3.44c0,2.26-0.86,4.03-2.59,5.3C331.23,79.93,328.94,80.56,326.11,80.56z
		"/>
</g>
</svg>
